<svg width="385" height="14" viewBox="0 0 385 14" fill="none" xmlns="http://www.w3.org/2000/svg">
<mask id="mask0_1_121" style="mask-type:alpha" maskUnits="userSpaceOnUse" x="0" y="0" width="385" height="14">
<rect y="0.345795" width="385" height="13.0093" fill="#C4C4C4"/>
</mask>
<g mask="url(#mask0_1_121)">
<path d="M57.8281 -2.40565L58.7691 -2.57712L56.938 -2.82298L57.8158 -3.00294C58.6959 -3.00129 59.8363 -2.73164 60.4568 -2.87492C60.5327 -3.01364 59.5743 -3.05817 59.3297 -3.16869C59.1133 -3.28198 58.9367 -3.39453 58.8019 -3.505C59.2813 -3.50381 59.8082 -3.47709 60.3516 -3.42641C61.0824 -3.34364 61.7992 -3.30341 62.423 -3.31015C63.6985 -3.28779 64.9307 -3.31009 66.3174 -3.30518L65.856 -3.63905L67.6432 -3.56094C67.8326 -3.53551 68.0584 -3.57641 68.2445 -3.54494C69.7933 -3.27871 70.4487 -3.42379 71.1922 -3.54408C71.3447 -3.57521 71.5283 -3.59845 71.7383 -3.61319C73.8044 -3.54942 75.6676 -3.17625 77.5283 -2.98467C77.8785 -2.93576 78.2144 -2.87298 78.5122 -2.80077C79.1594 -2.6604 79.8793 -2.5458 80.6061 -2.46744C81.3328 -2.38909 82.0432 -2.34949 82.6723 -2.35225C84.0635 -2.35535 85.6352 -2.26251 87.2354 -2.0827C87.7112 -2.02348 88.1874 -1.98441 88.6335 -1.96798C89.0796 -1.95156 89.486 -1.95813 89.8264 -1.9873L90.9083 -1.79671C91.3773 -1.87404 91.9719 -1.91648 92.6562 -1.92142C93.3404 -1.92637 94.1 -1.89374 94.8888 -1.8255C95.7294 -1.75148 96.5833 -1.70158 97.4554 -1.62332C99.257 -1.4737 101.01 -1.3822 102.661 -1.35165C105.119 -1.26114 107.521 -1.19115 110.001 -1.07831C111.552 -1.02384 113.064 -0.993876 114.527 -0.988584C116.279 -0.967279 118.174 -0.864137 120.121 -0.684134C120.029 -0.515252 119.175 -0.565145 118.602 -0.57086C116.753 -0.59893 114.862 -0.671667 112.96 -0.726309C112.103 -0.747638 111.27 -0.755718 110.465 -0.750486C109.12 -0.757488 107.702 -0.802487 106.235 -0.884715C103.918 -0.975195 101.675 -1.01869 99.5287 -1.01475C99.3605 -1.00806 99.2063 -0.996207 99.0689 -0.979387C99.0402 -0.964819 99.0345 -0.946447 99.0524 -0.926039C99.0703 -0.905629 99.1112 -0.883857 99.1711 -0.862816C99.231 -0.841778 99.3079 -0.822175 99.3946 -0.805875C99.4812 -0.789576 99.5747 -0.777126 99.6659 -0.769729C100.518 -0.655278 101.434 -0.532355 102.238 -0.515061C102.269 -0.513768 102.302 -0.510817 102.335 -0.506419C102.367 -0.502019 102.399 -0.496284 102.427 -0.489629C104.227 -0.24801 105.706 -0.288897 107.108 -0.249586C109.435 -0.143343 111.679 -0.0937158 113.804 -0.101457C114.126 -0.10093 114.473 -0.0871185 114.833 -0.0605222C117.059 0.0472922 119.141 0.0593499 120.981 -0.024892C121.738 -0.046235 122.442 -0.0941462 123.255 -0.0949472C123.757 -0.0982457 124.193 -0.12882 124.538 -0.184842C124.883 -0.240863 125.13 -0.321173 125.264 -0.420943C125.607 -0.368415 125.956 -0.321602 126.305 -0.281064C126.514 -0.257884 126.715 -0.251727 126.866 -0.263857C127.017 -0.275986 127.108 -0.305495 127.121 -0.346414C127.183 -0.461014 126.706 -0.518564 126.293 -0.567639C126.542 -0.592216 126.823 -0.606674 127.129 -0.610666C128.853 -0.636852 130.703 -0.605945 132.637 -0.518627C134.138 -0.414108 135.337 -0.49918 136.917 -0.351787C137.106 -0.326353 137.262 -0.363684 137.437 -0.372647C137.891 -0.419848 138.458 -0.430457 139.087 -0.403546C139.715 -0.376635 140.388 -0.313019 141.046 -0.218212C141.865 -0.47723 143.635 -0.181325 144.942 -0.15473C145.345 -0.0230084 144.883 -0.0461639 144.863 -0.00997496C144.843 0.026214 144.863 -0.00998309 144.705 -0.0311783C143.4 0.155364 141.612 0.196042 139.592 0.0851354C139.219 0.085595 138.863 0.0940933 138.528 0.110547C138.021 0.133836 137.449 0.13151 136.837 0.103672C136.169 0.0832277 135.555 0.0929368 135.026 0.132334C134.721 0.131693 134.463 0.151429 134.276 0.189726C134.089 0.228024 133.98 0.28364 133.957 0.351408C134.161 0.40365 134.386 0.451454 134.625 0.492919C135.873 0.656639 137.117 0.724407 138.113 0.682889C139.847 0.611354 141.91 0.681162 143.753 0.656739C144.999 0.646846 146.325 0.675028 147.706 0.740756C147.706 0.740756 147.67 0.807102 147.666 0.813134C147.83 0.841858 148.001 0.864907 148.171 0.880957C148.171 0.880957 148.171 0.880957 148.188 0.8508C148.112 0.82184 148.01 0.794595 147.892 0.772219L147.482 0.717111C147.76 0.702772 148.021 0.660074 148.312 0.686162C148.924 0.734629 149.51 0.75509 150.033 0.74633C150.556 0.737568 151.006 0.699764 151.356 0.635182C151.976 0.552413 152.746 0.514774 153.619 0.524693C154.287 0.515658 154.931 0.496236 155.548 0.466528C155.548 0.466528 155.588 0.394155 155.88 0.355688C155.603 0.308244 155.315 0.269502 155.028 0.241242C153.778 0.170635 152.526 0.106058 151.299 0.0577859C150.846 0.052571 150.421 0.0606599 150.032 0.0818929C148.952 0.10674 147.738 0.0714742 146.462 -0.0218468C146.462 -0.0218468 146.21 -0.0557575 146.083 -0.0727128C146.442 -0.231808 147.676 -0.0725341 148.175 -0.180279C148.479 -0.178317 149.014 -0.164769 148.996 -0.193135C148.954 -0.230985 148.949 -0.26615 148.981 -0.296101C149.013 -0.326054 149.082 -0.350056 149.181 -0.366384C149.281 -0.382712 149.409 -0.390968 149.557 -0.390546C149.706 -0.390128 149.87 -0.381043 150.038 -0.363956C151.443 -0.271521 152.767 -0.245816 153.928 -0.288415C154.368 -0.287593 154.861 -0.260196 155.298 -0.253342C155.565 -0.245086 155.809 -0.249678 156.017 -0.266862C157.072 -0.393424 158.492 -0.402667 160.064 -0.293204C160.823 -0.253848 161.533 -0.248585 162.156 -0.277685C162.6 -0.282893 162.788 -0.19291 163.104 -0.150521L164.444 -0.0611645L162.722 0.0508035C163.09 0.307395 163.383 0.392003 163.984 0.407989C164.861 0.432128 165.716 0.443034 166.542 0.440638C167.153 0.438529 167.658 0.38327 168.485 0.481419C168.631 0.497427 168.772 0.50261 168.884 0.496095C169.853 0.408959 171.019 0.388963 172.304 0.437468C172.97 0.2743 174.103 0.432941 175.151 0.560762C175.49 0.437853 174.877 0.381435 174.511 0.306441C175.388 0.314117 176.271 0.309734 177.177 0.327681C177.449 0.321147 177.76 0.332325 178.086 0.36033C178.411 0.388336 178.743 0.432405 179.054 0.489093C179.205 0.525721 179.388 0.553287 179.564 0.566069C179.74 0.57885 179.896 0.575869 179.999 0.557742C180.469 0.504281 181.221 0.553521 181.609 0.463217C181.747 0.442447 181.945 0.439548 182.166 0.455025C182.387 0.470501 182.618 0.503353 182.817 0.54769C182.599 0.561521 182.405 0.583304 182.239 0.612558C181.645 0.707586 181.864 0.866369 182.618 1.09721C183.778 1.08452 184.962 1.08812 186.036 1.04461C186.635 1.00556 187.368 1.01777 188.155 1.07987C188.941 1.14197 189.748 1.2515 190.486 1.39615C190.753 1.45177 191.058 1.49029 191.339 1.50407C191.62 1.51785 191.858 1.50587 192.004 1.4705C192.096 1.42961 192.124 1.37785 192.087 1.31972L191.329 1.21799C191.329 1.21799 191.359 1.1637 191.366 1.15164L192.455 1.14252C193.031 1.1422 193.632 1.15819 194.177 1.15364C194.977 1.12334 195.891 1.14023 196.861 1.20325C197.756 1.26787 198.636 1.31671 199.492 1.34935C200.321 1.38294 200.922 1.27585 201.71 1.25874C202.307 1.24585 202.963 1.25963 203.654 1.29954C204.847 1.37032 205.942 1.37045 206.839 1.29992C207.885 1.67992 208.393 1.74171 209.364 1.63903L209.821 1.60969L209.946 1.6912L210.294 1.67327C210.947 1.65731 211.6 1.64135 212.281 1.63566C213.227 1.67092 214.25 1.7658 215.248 1.91103C215.437 1.93647 215.695 2.02288 215.861 2.09053C216.028 2.15819 216.39 2.36228 216.657 2.49515C216.366 2.59213 216.045 2.68488 215.814 2.79638C215.791 2.81543 215.793 2.83814 215.821 2.8627C215.848 2.88725 215.9 2.91296 215.972 2.93776C216.044 2.96256 216.135 2.98575 216.236 3.00548C216.337 3.02521 216.447 3.04092 216.556 3.05135C216.768 3.07384 216.977 3.08883 217.175 3.0957C218.151 3.10756 219.085 3.09875 219.969 3.06934C220.291 3.02786 220.733 3.02392 221.224 3.05815C221.715 3.09239 222.226 3.16283 222.678 3.25832C223.834 3.20099 225.178 3.21793 226.616 3.30795C228.137 3.2532 229.974 3.36392 231.395 3.24396C231.362 3.30428 231.509 3.40812 231.713 3.46795C232.036 3.55883 232.403 3.64305 232.797 3.71705L235.802 3.86153C235.914 3.93583 236.054 4.01104 236.221 4.08618C236.335 4.14553 236.534 4.20361 236.775 4.24811C237.017 4.2926 237.282 4.32002 237.514 4.32453C238.112 4.34655 238.613 4.29732 239.326 4.41895C238.228 4.53391 236.747 4.51864 235.148 4.37584C233.645 4.26724 232.199 4.21297 230.864 4.21504C230.424 4.21421 229.844 4.22055 229.707 4.28625C229.402 4.47192 228.605 4.44257 227.675 4.40832C226.944 4.37083 226.277 4.37503 225.727 4.42059C225.178 4.46616 224.763 4.55177 224.515 4.67039C224.453 4.78499 224.603 4.8828 225.244 4.94948L227.91 5.21688C228.303 5.1825 228.676 5.14181 229.028 5.09496C229.619 5.03275 230.35 5.01567 231.163 5.04506C231.975 5.07445 232.848 5.14952 233.713 5.26442C234.155 5.32376 234.597 5.38311 234.917 5.35491C235.199 5.32252 235.458 5.28374 235.692 5.23885C235.74 5.20877 235.759 5.17415 235.749 5.13632C235.919 5.15391 236.089 5.17678 236.254 5.20414C237.57 5.52335 238.59 5.51782 239.516 5.43503C239.767 5.41041 239.958 5.37129 240.212 5.34065C240.466 5.31001 240.555 5.27024 240.786 5.28181C242.626 5.3865 243.156 5.03684 244.708 5.05088C244.783 5.03723 244.83 5.0168 244.844 4.99151C244.858 4.96621 244.838 4.93685 244.787 4.90613C244.677 4.87839 244.55 4.85454 244.418 4.83676C244.286 4.81898 244.152 4.80785 244.029 4.8044C243.315 4.75953 242.685 4.77328 242.246 4.84332C241.935 4.87194 241.605 4.89474 241.259 4.91161L239.706 4.40525C241.211 4.45167 242.634 4.45136 243.943 4.40435C244.228 4.37794 244.712 4.42343 245.114 4.43208L248.07 4.47941C248.678 4.48333 249.196 4.40395 250.043 4.58899C250.043 4.58899 250.603 4.61883 250.752 4.59356C250.902 4.5683 251.564 4.41116 251.959 4.30879C252.417 4.33798 253.052 4.41673 253.337 4.39033C253.836 4.32548 254.268 4.24234 254.625 4.1424L256.411 4.28507C256.409 4.4118 256.344 4.53102 256.216 4.64093C256.077 4.74692 256.082 4.87415 256.23 5.01222C256.378 5.15028 256.666 5.29526 257.07 5.43532L258.833 6.17707C259.121 6.22675 259.427 6.26018 259.712 6.27284C259.996 6.2855 260.243 6.27678 260.421 6.24784C261.179 6.16194 262.029 6.0948 262.788 6.0089C263.767 6.14031 263.515 6.35255 264.227 6.53873L266.531 6.84816C266.883 7.13491 267.241 7.4096 266.172 7.5056C265.959 7.52239 266.103 7.63227 265.909 7.67742C266.74 7.89261 267.653 7.95703 268.496 8.08957C268.828 8.18489 269.106 8.2858 269.316 8.38741C269.546 8.5404 270.014 8.69668 270.617 8.82251C271.22 8.94833 271.911 9.0336 272.54 9.0599C273.596 9.14045 274.676 9.26144 275.734 9.41744C276.095 9.47169 276.466 9.51122 276.822 9.53335C277.178 9.55549 277.511 9.55972 277.798 9.54577C278.821 9.52121 279.687 9.43674 280.34 9.29786C280.985 9.18001 281.855 9.12321 282.87 9.13261C284.606 9.36575 284.957 9.71706 286.007 10.0265L284.192 10.0612C284.126 10.1818 284.247 10.3339 283.503 10.3311C282.759 10.3283 283.136 10.4438 283.377 10.5603C283.462 10.6189 283.628 10.6793 283.847 10.731C284.066 10.7828 284.324 10.8229 284.577 10.8445L286.123 10.9937C286.67 11.0504 287.201 11.0747 287.655 11.0637C288.109 11.0528 288.47 11.0071 288.698 10.9316C288.96 10.8599 289.321 10.8115 289.759 10.7891C290.317 10.7307 290.776 10.6437 291.119 10.5316L293.301 10.695C293.393 10.5823 293.693 10.5033 294.149 10.4713C294.605 10.4393 295.189 10.4563 295.802 10.5194L297.273 10.6197C298.907 10.7291 299.266 10.6931 299.744 10.3754L297.784 9.80791C298.069 9.65843 298.344 9.52705 298.619 9.39566C298.131 9.2087 297.48 9.03186 296.731 8.88311C296.032 8.72328 295.314 8.56848 294.578 8.4193C293.781 8.26687 292.938 8.13432 291.948 7.96248C291.775 7.90689 291.524 7.80842 291.203 7.71354C290.882 7.62134 290.546 7.53096 290.199 7.44276C290.265 7.32213 290.324 7.21356 290.197 7.07353C290.807 7.11821 291.437 7.19636 292.031 7.30093C292.625 7.40549 293.163 7.53319 293.597 7.67251C293.67 7.69722 293.76 7.72042 293.86 7.74056C293.96 7.7607 294.068 7.7773 294.177 7.78924C295.249 7.87484 295.761 8.05367 296.285 8.27294C296.638 8.38502 297.093 8.48456 297.586 8.55774C298.534 8.68491 299.461 8.84827 300.367 8.98929C300.644 9.03629 300.932 9.07497 301.219 9.10374C302.166 9.19523 303.118 9.32315 304.029 9.48101C304.326 9.52113 304.611 9.57423 304.86 9.63586C305.11 9.69749 305.316 9.76585 305.462 9.83526C305.236 9.91131 305.115 10.0073 305.104 10.1174C305.064 10.1898 305.729 10.3374 306.044 10.4443C306.358 10.5512 305.742 10.5009 305.532 10.5116C304.674 10.5323 304.515 10.5757 305.029 10.813C305.2 10.8877 305.315 10.9623 305.364 11.0324C305.413 11.1025 305.396 11.1665 305.314 11.2204C305.192 11.4436 304.821 11.6268 304.566 11.8451C304.962 11.9889 305.624 12.1424 305.696 12.3204C305.73 12.3599 305.804 12.4018 305.91 12.4429C306.017 12.4841 306.153 12.5235 306.311 12.5584C306.727 12.6338 307.105 12.7239 307.415 12.8218C307.726 12.9196 307.962 13.0227 308.104 13.1229C308.15 13.1643 308.262 13.2082 308.418 13.2459C308.573 13.2836 308.76 13.3122 308.942 13.326C309.158 13.3429 309.352 13.3407 309.484 13.3197C309.615 13.2988 309.673 13.2608 309.647 13.2135C309.652 13.1247 309.623 13.0321 309.561 12.9365C309.597 12.8702 309.634 12.8039 309.49 12.694C310.137 12.7341 310.817 12.8144 311.455 12.9263C312.092 13.0382 312.664 13.1774 313.108 13.3287C313.599 13.4852 314.051 13.6495 314.595 13.8326C314.483 14.0376 314.483 14.0376 315.64 14.4002L321.779 14.577L323.037 14.8172C324.21 15.0265 324.489 15.0121 325.226 14.9039L325.722 14.8022C326.764 14.9421 327.964 15.1032 328.615 14.841C328.827 15.0119 328.965 15.0693 328.917 15.0952C328.606 15.3473 328.065 15.5612 327.317 15.7285C327.126 15.7676 326.992 15.8273 326.769 15.8621C326.052 16.059 325.886 16.3633 326.304 16.7126C326.512 16.8672 326.814 17.0255 327.2 17.1824C326.635 17.4002 325.886 17.5806 324.975 17.7189C324.201 17.8258 323.564 17.9691 323.082 18.1445C322.649 18.3213 322 18.4543 321.173 18.5357C320.754 18.5703 320.448 18.6386 320.286 18.7337C320.238 18.9913 320.348 19.2671 320.616 19.555C320.667 19.6426 320.81 19.7372 321.035 19.8314C321.259 19.9256 321.56 20.0169 321.912 20.098C321.912 20.098 322.082 20.1596 322.163 20.1965C322.231 20.5084 321.977 20.7834 321.417 21.0027C321.326 21.065 321.138 21.11 320.875 21.1328C320.612 21.1556 320.283 21.1555 319.923 21.1323C319.164 21.0951 318.455 21.0906 317.721 21.0697C316.93 21.0402 316.233 21.0634 315.704 21.1371C315.175 21.2107 314.832 21.332 314.713 21.4881C314.706 21.5323 314.683 21.5746 314.644 21.6148C314.622 21.6354 314.61 21.6577 314.608 21.6811L316.294 22.1923L314.387 22.3959C314.274 22.601 315.19 22.7239 315.649 22.8762L315.365 22.9611C315 23.0092 314.508 22.9172 314.063 22.8639L313.621 22.8046L313.568 22.9011C313.293 23.0325 312.289 22.8848 311.898 22.9811C311.506 23.0774 311.786 23.1862 312.372 23.2908C312.78 23.3686 313.218 23.4307 313.653 23.4723C314.088 23.5139 314.509 23.534 314.884 23.531C315.108 23.5207 315.294 23.4972 315.43 23.4619C316.222 23.3116 317.097 23.1824 318.048 23.0753C318.777 22.979 319.69 22.9381 320.723 22.9553C321.026 22.9481 321.391 22.9709 321.755 23.0197C322.119 23.0685 322.457 23.1403 322.712 23.2224L323.246 23.2359C323.246 23.2359 323.539 23.3205 323.498 23.3344C323.294 23.5851 323.531 23.8915 324.172 24.2083L323.614 24.237C322.817 24.2077 323.322 24.3986 323.203 24.4926C322.637 24.4748 321.901 24.3954 321.632 24.5148L321.23 24.5061L321.388 24.5273L321.579 24.4882L322.329 24.6665C321.974 24.6965 321.716 24.7332 321.402 24.7493C321.229 24.7634 321.091 24.7882 320.997 24.8222C320.903 24.8563 320.854 24.8989 320.854 24.9475C320.854 25.0224 320.761 25.0854 320.582 25.1305C320.403 25.1756 320.145 25.2013 319.832 25.2053C319.458 25.2069 319.244 25.2882 319.025 25.3171L319.977 25.8074C319.977 25.8074 319.503 25.7439 319.761 25.8303L319.794 25.7699L320.371 25.8927C320.786 26.0003 321.077 26.0264 321.323 25.9493C321.568 25.8722 321.512 25.9747 321.63 25.9452C321.587 26.0236 321.32 26.0784 321.091 26.1253C320.826 26.1622 320.527 26.1894 320.199 26.2063C320.79 26.5511 320.819 26.5614 319.955 26.6527C319.092 26.744 319.39 26.8811 318.668 26.9006C317.945 26.9202 318.767 27.1534 319.25 27.1989C319.608 27.2288 319.974 27.2754 320.321 27.3355C320.669 27.3955 320.99 27.4676 321.263 27.5468L321.118 27.8122C320.905 27.7903 320.692 27.7617 320.486 27.7274C319.786 27.5817 319.15 27.4444 318.527 27.5292L318.824 27.7308L316.651 27.6139C316.707 27.7651 317.038 27.9372 317.575 28.094C317.494 28.1802 317.444 28.2709 317.426 28.3654C317.39 28.4318 317.176 28.39 317.036 28.3972C316.539 28.4083 316.13 28.4533 315.847 28.5281C315.564 28.603 315.414 28.7055 315.412 28.8266C315.356 28.9291 316.121 29.1419 316.599 29.1349C317.793 29.1553 319.084 29.2342 320.403 29.3672C321.207 29.3845 321.32 29.1149 322.643 29.299C322.669 29.4235 322.5 29.5242 322.16 29.5861C321.821 29.648 321.33 29.6676 320.761 29.6419C321.084 29.9184 322.875 29.9905 322.954 30.2795C322.508 30.2591 322.032 30.2111 321.571 30.1401C321.111 30.0692 320.682 29.9779 320.329 29.8752C320.252 29.8499 320.156 29.8265 320.05 29.8073C319.944 29.7881 319.83 29.7737 319.719 29.7653C319.609 29.757 319.506 29.755 319.419 29.7595C319.332 29.7641 319.264 29.775 319.222 29.7914C319.47 29.8959 319.743 30.0167 320.054 30.1296C320.365 30.2426 320.44 30.2915 320.664 30.3152C322.337 30.5398 323.133 30.9444 324.58 31.21C324.959 31.2609 325.006 31.4226 324.677 31.4043C324.365 31.386 324.081 31.3884 323.859 31.4112C323.637 31.434 323.486 31.4763 323.421 31.5334C323.178 31.6 322.876 31.653 322.521 31.691C324.006 32.1063 325.776 32.4731 327.665 32.7572C328.023 32.8134 328.396 32.8476 328.73 32.8549C329.785 32.8553 330.904 32.8883 332.065 32.9531C332.477 32.9708 332.858 32.9691 333.186 32.9482C334.264 32.8987 335.12 33.0071 335.901 33.3128L337.195 33.7973C337.152 33.8757 336.935 33.9631 336.768 34.083L337.779 34.3418L345.492 33.7459L347.04 34.3228L349.261 34.2908C349.431 34.3074 349.602 34.3304 349.766 34.3586C350.215 34.5289 350.566 34.6926 351.053 34.8552C351.54 35.0177 352.411 35.0374 353.017 35.229C353.624 35.4205 354.232 35.4245 354.983 35.5383C355.054 35.6865 354.981 35.82 354.769 35.9303C354.7 36.057 354.318 36.1352 354.252 36.2558C354.259 36.3778 354.118 36.4813 353.84 36.557C353.561 36.6327 353.156 36.6782 352.66 36.6894C351.27 36.949 349.594 37.1339 347.683 37.2384C347.515 37.246 347.376 37.2635 347.274 37.2899C347.172 37.3163 347.11 37.3511 347.091 37.3919C347.093 37.5103 346.966 37.6125 346.718 37.6912C346.47 37.7699 346.107 37.823 345.656 37.8467C345.536 37.8515 345.446 37.8663 345.396 37.8894C345.225 37.9043 345.1 37.9329 345.034 37.9722C344.968 38.0116 344.963 38.0605 345.018 38.1142C345.074 38.1679 345.189 38.2246 345.353 38.2788C345.516 38.333 345.722 38.3829 345.951 38.4237C346.283 38.4893 346.622 38.5521 346.966 38.6118C346.946 38.648 346.604 38.6538 346.654 38.6864C346.789 38.7905 346.821 38.888 346.746 38.9712C346.671 39.0544 346.492 39.1211 346.223 39.1659L348.066 40.009C349.185 40.1258 350.283 40.3239 351.151 40.5656C351.152 40.6052 351.102 40.6384 351.006 40.6618C350.91 40.6853 350.771 40.6982 350.603 40.6993C350.153 40.7165 349.728 40.7501 349.243 40.7692C348.947 40.7834 348.7 40.8148 348.518 40.8614C348.335 40.908 348.22 40.969 348.18 41.0407L349.262 41.3544C348.915 41.4308 348.658 41.4675 348.429 41.5145C348.559 41.613 348.782 41.715 349.081 41.8124C349.381 41.9099 349.748 42.0002 350.155 42.0764C350.264 42.0921 350.376 42.1036 350.483 42.1102C350.59 42.1168 350.69 42.1183 350.778 42.1147C351.616 42.0071 352.597 42.1971 353.549 42.3767C354.502 42.5564 355.019 42.6647 355.722 42.8044L357.067 42.8231C357.407 42.8893 357.711 42.9671 357.954 43.0503C358.197 43.1335 358.372 43.2198 358.465 43.3023C358.393 43.435 357.755 43.3622 357.375 43.3759C356.472 43.4585 355.286 43.4409 354.013 43.326C353.697 43.2836 353.374 43.3178 353.066 43.3219C352.404 43.3384 351.767 43.3653 351.159 43.4024C350.758 43.4369 350.384 43.4797 350.038 43.5303C349.946 43.6992 351.4 43.8297 350.575 43.9131C350.859 43.9513 350.965 44.0044 351.111 43.9852C352.047 44.0948 352.969 44.1491 353.771 44.1415C355.309 44.1182 357.055 44.1952 358.867 44.3661C360.822 44.5432 362.698 44.6175 364.339 44.583C364.965 44.581 365.663 44.6172 366.382 44.689C367.232 44.7884 368.075 44.8509 368.858 44.8724C369.117 44.8732 369.405 44.8901 369.7 44.9218C369.995 44.9535 370.287 44.9991 370.554 45.0549C370.531 45.0971 370.277 45.1277 370.333 45.1483C371.143 45.4642 371.472 45.7932 372.719 46.116C373.571 46.2304 374.55 46.3618 375.107 46.2101C375.665 46.0583 375.465 45.9279 374.356 45.5394C374.596 45.5338 374.886 45.552 375.175 45.5907C375.463 45.6295 375.732 45.6863 375.934 45.7514L376.893 46.042L377.758 46.32C377.682 46.4587 377.623 46.5673 377.56 46.6819C377.461 46.8036 377.57 46.9518 377.871 47.1056C378.052 47.1895 378.21 47.2735 378.343 47.3568C378.884 47.6897 379.041 48.0044 378.796 48.2656C378.326 48.6411 377.672 48.9866 376.842 49.2981C375.964 49.6011 375.484 49.9834 374.762 50.3137C374.393 50.464 373.945 50.5988 373.423 50.7166C372.433 50.9786 371.347 51.2278 370.354 51.4958C369.36 51.7638 368.238 51.9563 367.135 52.1771C365.492 52.4392 363.716 52.6656 361.817 52.855C360.641 53.0209 359.435 53.1826 358.348 53.3733C357.064 53.5883 355.556 53.7427 353.861 53.8327C352.364 53.9403 351.026 54.0995 349.874 54.3073C349.753 54.3298 349.657 54.3583 349.59 54.3922C349.383 54.6041 348.801 54.7534 347.934 54.8173C347.987 54.8793 348.054 54.9424 348.136 55.0063C348.256 55.0823 348.281 55.1535 348.208 55.2106C348.134 55.2677 347.966 55.3081 347.724 55.3264C347.031 55.3789 346.454 55.468 346.021 55.5898C345.862 55.6204 345.763 55.6649 345.733 55.7195C345.703 55.7741 345.743 55.8373 345.85 55.9035C345.944 55.9716 345.951 56.0343 345.869 56.0834C345.788 56.1325 345.623 56.1658 345.394 56.179C344.807 56.2434 344.179 56.2953 343.513 56.3343C342.096 56.4202 340.448 56.4191 338.669 56.3313C338.479 56.3058 338.289 56.345 338.068 56.3153C336.809 56.2168 335.64 56.2016 334.703 56.2714C333.604 56.2986 332.454 56.2932 331.295 56.3059C329.621 56.2973 328.076 56.3491 326.704 56.4598C325.136 56.3529 324.255 56.5389 322.931 56.5424C321.709 56.5615 320.551 56.6074 319.468 56.6795C317.721 56.7751 315.981 56.8587 314.259 56.9707C312.644 57.0241 311.157 57.1261 309.823 57.275C309.312 57.3423 308.386 57.2375 308.038 57.3785C307.69 57.5195 306.987 57.5028 306.42 57.5496L304.628 57.6651C304.32 57.6926 303.981 57.7101 303.617 57.7171C301.952 57.7266 300.798 57.9148 299.252 57.9533L299.094 57.9321C296.349 58.2119 293.208 58.3655 289.763 58.3884C287.751 58.4742 285.55 58.4701 283.415 58.533C282.905 58.6588 281.702 58.5038 281.064 58.6187C280.425 58.7336 279.381 58.6583 278.558 58.6772C277.734 58.6961 276.929 58.7433 276.049 58.7417C275.284 58.7422 274.639 58.7936 274.171 58.891C273.103 59.0521 271.802 59.1468 270.324 59.1708C268.37 59.2127 266.522 59.3077 264.534 59.2868C264.562 59.4042 264.44 59.504 264.181 59.5761C263.921 59.6482 263.533 59.6899 263.056 59.6969C260.93 59.7417 259.003 59.8584 256.849 59.8929L256.273 59.8932L249.831 59.9606C248.096 59.9736 246.424 59.9951 244.653 60.0099C243.99 59.9209 243.974 60.0741 243.516 60.045C243.388 59.9695 243.236 59.9362 243.011 59.9771L242.961 60.0676L235.61 60.1876C232.732 60.2754 229.704 60.3017 226.553 60.2664C225.805 60.2752 225.107 60.3052 224.471 60.3558C223.88 60.3743 223.265 60.3825 222.627 60.3803C221.766 60.3575 220.924 60.346 220.105 60.3458C217.951 60.3803 215.691 60.3617 213.332 60.3364C210.974 60.3111 209.187 60.3561 207.088 60.3526C205.667 60.3495 204.252 60.3343 202.78 60.2986C202.078 60.2819 201.212 60.1916 200.484 60.1587C199.757 60.1257 199.519 60.1262 199.423 60.178C199.107 60.3233 198.311 60.2294 197.675 60.2152C196.434 60.191 196.258 60.1415 195.921 59.7661L197.443 59.6467C197.816 59.6082 198.286 59.6015 198.806 59.6271C199.326 59.6527 199.88 59.7099 200.413 59.793C200.623 59.8287 200.843 59.8568 201.059 59.8759C201.276 59.8949 201.485 59.9045 201.674 59.9041C203.21 59.8837 204.725 59.841 206.201 59.8062L206.417 59.7833L206.43 59.4485C206.235 59.4156 206.032 59.3885 205.83 59.368L198.426 59.1507C196.727 59.0974 194.963 58.977 193.295 58.9279C191.628 58.8788 190.729 58.8488 189.435 58.7981C188.889 58.7692 188.333 58.7312 187.769 58.6845C187.802 58.6522 187.821 58.6179 187.825 58.5819C187.855 58.5277 187.895 58.4553 187.655 58.3972C187.394 58.3153 187.045 58.2453 186.678 58.2013C186.333 58.1722 185.999 58.1557 185.688 58.1525C184.186 58.1245 182.471 57.9476 180.908 57.6596L180.363 57.8518C178.016 57.7439 175.634 57.6377 173.182 57.5351C172.691 57.5072 172.176 57.4535 171.675 57.3781C171.139 57.3061 170.645 57.1556 170.08 57.0732C169.522 57.014 168.967 56.9678 168.427 56.9355C168.573 56.886 168.766 56.8465 168.999 56.8181C169.229 56.8082 169.396 56.7773 169.477 56.7299C169.558 56.6826 169.548 56.6212 169.448 56.5547C169.274 56.4406 169.197 56.3332 169.577 56.3195C169.928 56.2934 170.18 56.2371 170.301 56.1571C170.423 56.0771 170.41 55.9768 170.264 55.8679C170.2 55.8043 170.155 55.742 170.129 55.6814L169.971 55.6602C169.45 55.4349 168.411 55.3536 167.664 55.1692C167.312 55.1157 166.947 55.085 166.628 55.0818C165.802 55.0422 164.998 55.0249 164.144 54.975C163.737 54.952 163.31 54.9102 162.89 54.8519C162.29 54.7713 162.227 54.7629 161.879 54.4701C162.42 54.4752 162.848 54.4315 163.093 54.3463C163.337 54.2611 163.381 54.1397 163.219 54.0026C162.773 53.7031 162.301 53.3873 160.283 53.1746C160.941 53.1641 161.575 53.1432 162.181 53.1122C162.357 53.1055 162.489 53.0835 162.559 53.0491C162.629 53.0148 162.634 52.9697 162.573 52.9199C162.511 52.8701 162.387 52.8181 162.216 52.7706C162.046 52.7232 161.837 52.6827 161.618 52.6546C160.552 52.4852 159.441 52.3718 158.408 52.3272C157.537 52.3075 156.752 52.3185 155.736 52.318L154.536 52.1569C154.556 52.1207 154.38 52.0712 154.424 52.0513C154.729 51.8656 155.065 51.6842 155.412 51.4847C154.859 51.3769 154.38 51.2469 154.029 51.1094C153.679 50.9719 153.471 50.8325 153.431 50.7072C153.401 50.6694 153.409 50.635 153.454 50.6063C153.499 50.5777 153.58 50.5555 153.691 50.5414C154.007 50.5172 154.25 50.4709 154.403 50.4061C154.556 50.3414 154.614 50.2598 154.573 50.1678L153.64 49.8289C150.831 49.5871 148.072 49.4143 145.416 49.3138L143.017 49.2378C142.728 49.1471 142.818 49.1074 143.09 49.1051C143.362 49.1028 144.128 49.1279 144.663 49.1415C145.125 49.1593 145.535 49.1476 145.853 49.1076C146.172 49.0676 146.389 49.0006 146.482 48.9131L145.677 48.5266C145.716 48.4542 145.772 48.3517 146.209 48.3585C146.507 48.3501 146.727 48.3137 146.833 48.2551C146.939 48.1965 146.925 48.1191 146.792 48.0355C146.772 47.9749 146.802 47.9198 146.881 47.8726C147.527 47.8687 148.17 47.8708 148.756 47.8524C149.029 47.8463 149.26 47.8239 149.432 47.7867C149.604 47.7495 149.715 47.6984 149.755 47.6369C149.776 47.5769 149.725 47.5085 149.605 47.4373C149.485 47.3661 149.299 47.294 149.064 47.2269C148.146 47.1439 147.305 47.1429 146.728 47.224C146.522 47.2875 146.191 47.3222 145.779 47.3235C145.367 47.3248 144.893 47.2926 144.419 47.2313C143.877 47.1605 143.336 47.1294 142.894 47.1435C142.451 47.1577 142.136 47.2162 142.005 47.3085C141.448 47.2726 140.955 47.2452 140.468 47.2058C139.894 47.156 139.352 47.1413 138.899 47.1633C138.175 47.1789 137.394 47.1698 136.575 47.1362C134.215 47.0524 131.852 46.9746 129.567 46.9397C128.962 46.9297 128.439 46.9566 127.841 46.9346C127.243 46.9126 126.77 46.9721 126.022 46.8523C125.88 46.8336 125.736 46.8217 125.604 46.8173C125.471 46.813 125.352 46.8163 125.257 46.8271C123.943 46.9219 122.404 46.9353 120.728 46.8665C118.433 46.8497 116.053 46.802 113.754 46.7912C113.08 46.8005 112.443 46.8255 111.85 46.8657C111.398 46.8901 110.925 46.9065 110.434 46.9151C110.057 46.9227 109.696 46.9002 109.76 47.0318C109.823 47.1633 109.258 47.081 108.933 47.0567C107.814 46.9929 106.671 46.9066 105.516 46.7986C104.378 46.6813 103.262 46.613 102.237 46.5979C101.496 46.5891 100.732 46.6225 99.78 46.4428C99.8163 46.3765 99.8525 46.3101 100.06 46.2408C99.2832 46.0502 98.3971 45.8862 97.4748 45.7624C96.5525 45.6385 95.6206 45.5584 94.756 45.5287L93.5639 45.1679C93.2703 45.1256 92.9707 45.0947 92.6831 45.0772C92.3955 45.0598 92.1261 45.0561 91.8911 45.0663C91.7095 45.0716 91.4883 45.0582 91.2679 45.0286C91.0475 44.999 90.8428 44.9552 90.6914 44.9052C90.465 44.8417 90.1886 44.7869 89.8965 44.7477C89.6045 44.7085 89.31 44.6866 89.0498 44.6848C88.2307 44.6456 87.3563 44.555 86.5162 44.4223C86.2982 44.3446 86.1616 44.2642 86.1232 44.1912C86.0848 44.1181 86.1465 44.0556 86.3004 44.0114C86.5486 43.9332 86.6879 43.8336 86.71 43.7186C86.7321 43.6036 86.6365 43.4756 86.4289 43.3424C86.3226 43.2606 86.2871 43.1831 86.3245 43.1147C86.3619 43.0463 86.4714 42.9883 86.6465 42.9443C87.3 42.7407 87.1252 42.6266 86.056 42.2888C85.8824 42.2325 85.6729 42.1798 85.4412 42.1342C85.2095 42.0886 84.9604 42.051 84.7098 42.0239C84.1218 41.9688 83.5418 41.9279 82.9805 41.9017C82.6648 41.8593 82.3411 41.8936 81.9773 41.8771C80.1585 41.7947 79.8923 41.6619 79.3033 41.3756L78.874 41.1691C78.0778 41.0018 77.2071 40.8628 76.3245 40.7622C75.4419 40.6616 74.5695 40.6019 73.7701 40.5874C73.4523 40.5863 73.087 40.5577 72.7301 40.506C71.5687 40.3479 70.3925 40.2386 69.2795 40.1851C68.586 40.155 67.8383 40.0772 67.1264 39.9609C66.4145 39.8447 65.7686 39.6949 65.2663 39.5297C64.8151 39.3809 64.2248 39.2473 63.5775 39.1476C62.8199 39.0458 62.7497 38.9264 63.1728 38.8343C63.5959 38.7422 64.3045 38.6237 64.9336 38.5269C65.1524 38.4939 65.288 38.4404 65.3253 38.3723C65.3626 38.3041 65.3 38.224 65.1446 38.1408C65.0448 37.9985 65.0275 37.8635 65.0931 37.739C65.1282 37.6873 65.104 37.6279 65.0221 37.565C64.9403 37.5021 64.8027 37.4371 64.6186 37.3743C64.4345 37.3116 64.2083 37.2526 63.9551 37.2012C63.7019 37.1499 63.4276 37.1075 63.1508 37.0768C61.9827 36.92 60.8462 36.7674 59.655 36.6527C59.1558 36.5987 58.6571 36.5318 58.1712 36.4535C57.1765 36.26 56.1123 36.0995 55.0405 35.9814C54.5319 35.9285 54.0345 35.8362 53.6562 35.7243C52.4629 35.4228 51.3633 35.1058 50.3775 34.779C50.1398 34.6777 49.8289 34.5788 49.4642 34.4886C49.0995 34.3984 48.6888 34.3189 48.258 34.2549C47.9107 34.2083 47.628 34.1056 47.3604 34.0373C47.1659 33.8791 47.1451 33.7327 47.3 33.612C47.4549 33.4912 47.7805 33.4 48.2461 33.3469C48.6876 33.2832 49.1008 33.2092 49.4824 33.1309C49.9425 33.0677 50.4894 33.0297 51.1029 33.0183C51.8294 32.9844 52.3667 32.8873 52.6445 32.7398C50.6556 32.4727 48.7642 32.0893 47.0209 32.1789L45.6962 31.9363C45.749 31.8398 45.7951 31.7553 45.838 31.6769C46.153 31.5342 46.2514 31.3542 46.1249 31.1522C46.0205 31.0545 46.0299 30.9655 46.1521 30.8944C46.2743 30.8233 46.505 30.7725 46.8208 30.7471C48.6914 30.4868 50.8545 30.3111 52.6087 30.0158C53.1587 29.9603 53.8025 29.9351 54.5132 29.9413C55.2006 29.9235 55.1719 29.7902 54.3807 29.6257C53.9367 29.5397 53.4841 29.4574 53.0246 29.3789C50.9985 29.3658 50.1731 29.76 47.861 29.6502L46.7894 29.1308C46.4996 29.1228 46.2183 29.1196 45.9474 29.1213L42.0705 29.3324C41.7476 29.343 41.4962 29.3791 41.345 29.4366C41.1937 29.4941 41.1487 29.5707 41.2149 29.6577C41.2411 29.7642 41.1877 29.8619 41.0566 29.9473C40.9721 30.007 41.0262 30.0864 41.207 30.1682C41.6146 30.3524 41.0916 30.3793 40.7613 30.4256C40.6769 30.4301 40.5795 30.4296 40.4749 30.4241C40.3703 30.4187 40.2604 30.4084 40.1518 30.3938C40.0431 30.3792 39.9378 30.3606 39.8419 30.3391C39.746 30.3177 39.6615 30.2937 39.5932 30.2687C39.0113 30.0935 38.5023 29.9086 37.9303 29.7152C38.3364 29.5302 37.8586 29.2265 38.4923 29.0591C38.5632 29.0257 38.5915 28.9849 38.5756 28.9394C38.5597 28.8938 38.4999 28.8444 38.3999 28.7942C38.1418 28.6646 38.0189 28.5382 38.0435 28.4279C38.0682 28.3175 38.2395 28.227 38.5402 28.1656L38.5764 28.0993C37.7834 27.8763 37.9935 27.6779 37.682 27.4418L36.9192 27.2876C35.0212 26.9162 35.0178 26.9222 33.3838 26.9359C33.0544 26.7946 33.4729 26.7731 33.7867 26.7569L36.4149 26.5984C38.1333 26.4924 39.9017 26.4191 41.8213 26.379C43.7409 26.339 45.8809 26.2055 47.8651 26.1093C47.9654 26.1019 48.0422 26.0872 48.0889 26.0664C48.1356 26.0457 48.1509 26.0195 48.1336 25.99C48.0548 25.9582 47.9515 25.9275 47.8316 25.9002C47.7116 25.8728 47.5779 25.8496 47.4405 25.8322C46.8091 25.7474 46.1612 25.6928 45.4883 25.6219L44.234 25.4988L43.8481 25.3369C43.5969 25.2384 43.4254 25.1183 43.0913 25.0475C42.8159 24.9948 42.5171 24.9547 42.2258 24.9315C41.9345 24.9084 41.6614 24.9029 41.4351 24.9158C40.8075 24.9481 40.2397 24.9948 39.6403 25.0374C39.041 25.0799 38.7107 25.1262 38.191 25.1471C37.1351 25.1566 36.1146 25.1816 35.134 25.2222C34.3081 25.3181 33.5441 25.4318 32.8469 25.5625C32.412 25.6142 32.0054 25.6761 31.2628 25.6088C30.9104 25.5477 30.6066 25.4675 30.405 25.3824C30.2034 25.2972 30.1171 25.2127 30.1615 25.1437C30.2014 25.0896 30.3142 25.0468 30.4893 25.0193C30.6644 24.9919 30.896 24.9806 31.1623 24.9867C31.9077 24.9768 32.597 24.9433 33.2162 24.887C34.0782 24.7849 35.1275 24.741 36.3029 24.7576C36.7015 24.7723 36.9687 24.7175 37.3174 24.6996C37.666 24.6816 37.9614 24.6371 38.3502 24.6699C39.5578 24.7544 40.1369 24.625 40.8606 24.5409C41.1056 24.5036 41.2574 24.4433 41.2993 24.3667C41.3412 24.2901 41.2715 24.2001 41.098 24.1066C40.764 23.9204 40.3554 23.7332 39.8786 23.5479C39.6332 23.4568 39.3187 23.3703 38.96 23.2952C38.6013 23.2201 38.2079 23.1584 37.8109 23.1149C37.5732 23.0009 37.4465 22.8888 37.442 22.7887C37.4375 22.6886 37.5556 22.6038 37.7854 22.5417C38.3711 22.4003 38.8903 22.2563 40.2025 22.3354C40.8195 22.3656 41.4001 22.3714 41.9213 22.3526C43.0775 22.3267 44.4111 22.3832 45.7964 22.5168C46.1549 22.551 46.5072 22.5743 46.843 22.5861C49.238 22.6681 51.5199 22.7091 53.8085 22.738C55.0209 22.7518 56.2431 22.7476 57.5087 22.7881C60.4767 22.8758 63.1785 22.8307 66.0433 22.8593C67.5437 22.874 68.8867 22.8149 70.0018 22.6851C70.2189 22.6416 70.4054 22.5908 70.5591 22.5333C69.8201 22.3825 69.0085 22.2631 68.2018 22.1866C67.3952 22.11 66.6206 22.0788 65.9523 22.096C65.5849 22.1383 65.11 22.146 64.5806 22.1183C64.0512 22.0907 63.4881 22.0288 62.9541 21.9395L64.5067 21.889C65.5362 21.8654 66.5907 21.8581 67.592 21.8242C69.1827 21.7658 70.6569 21.6724 72.3042 21.6346C73.6341 21.5999 74.8242 21.5111 75.8371 21.3709C76.5688 21.2687 77.4046 21.1963 78.3273 21.155C78.9832 21.133 78.9832 21.133 79.4025 20.9239C79.0698 20.7886 78.6397 20.7696 78.2344 20.767C75.805 20.6819 73.4931 20.667 71.3457 20.7226C70.2622 20.7275 69.301 20.7849 68.5082 20.8919C68.3141 20.937 67.8175 20.9157 67.4188 20.901C66.1692 20.8787 64.9749 20.8852 63.8501 20.9203C62.2951 20.979 60.5632 20.9651 58.7217 20.8792C58.3725 20.774 58.7744 20.7827 58.7942 20.7465C60.2205 20.679 61.6185 20.6013 63.073 20.5441C63.4707 20.5237 63.8957 20.5136 64.3433 20.5139C66.0146 20.5494 67.4072 20.4512 68.3262 20.233C68.3724 20.1485 68.9769 20.1585 69.2441 20.1037C69.3755 20.0563 69.463 20.0005 69.5041 19.9379C69.1149 19.7821 68.6748 19.7813 68.336 19.7811C67.353 19.7985 66.4072 19.8315 65.5034 19.8798C64.6631 19.9259 63.7331 19.9382 62.7384 19.9165C62.0042 19.8956 61.3766 19.9279 60.6359 19.919C60.2342 19.9005 59.8182 19.8707 59.3967 19.8303C59.8661 19.7217 60.5041 19.6549 61.2659 19.6346C61.8436 19.5697 62.5659 19.5502 62.6582 19.3813C62.3854 19.2605 62.0814 19.2585 61.8374 19.2711C61.3293 19.2706 60.8386 19.2782 60.3678 19.2939C59.3694 19.3282 58.2884 19.3287 57.1476 19.2953C56.5469 19.2828 55.9769 19.2866 55.4471 19.3065C54.2466 19.3331 53.0959 19.3922 51.9967 19.4194C49.7449 19.4473 47.6911 19.547 45.5274 19.5996C45.0458 19.6126 44.6142 19.6583 43.9795 19.5795C43.3448 19.5008 43.3165 19.4905 43.2416 19.4416C43.064 19.36 43.0102 19.2809 43.0913 19.2207C43.2172 19.1645 43.4625 19.1332 43.7834 19.1324C45.7176 19.0429 47.5521 18.9173 49.2755 18.7562C50.034 18.724 50.6985 18.6582 51.246 18.5611C51.6801 18.4943 52.1952 18.45 52.7749 18.4298C53.6181 18.3814 54.4971 18.346 55.4084 18.3237C55.8324 18.3117 56.1929 18.2759 56.4688 18.2184C56.7446 18.1609 56.9302 18.0829 57.0145 17.989L55.8974 17.6772C55.7219 17.6627 55.5478 17.6501 55.3758 17.6395L46.1033 17.8642L45.185 17.8703C44.1786 17.8517 43.9326 17.8058 42.9779 17.4445C45.1567 17.3595 46.8694 17.1118 47.9455 16.726C47.6869 16.6845 47.4217 16.6489 47.1563 16.62C45.4151 16.5288 43.7691 16.5045 42.2818 16.5482C41.3983 16.5526 40.4899 16.5407 39.5782 16.5348C39.8448 16.357 40.8663 16.41 41.5321 16.3699C43.1229 16.3071 44.5296 16.1775 45.7073 15.9852C46.1133 15.9103 46.6212 15.8623 47.2079 15.8436C47.795 15.8372 48.2854 15.7918 48.6365 15.7114C48.9875 15.631 49.1886 15.5181 49.2221 15.3825C49.2774 15.2596 49.3966 15.1455 49.5778 15.0418C49.2572 14.8946 48.748 14.7536 48.1458 14.6453C47.5436 14.5371 46.8899 14.4689 46.3073 14.4537C45.0635 14.3931 43.7734 14.2939 42.4699 14.1586C41.8206 14.0904 41.1839 14.0512 40.6011 14.0436C40.0873 14.0378 39.5031 13.9885 38.9379 13.9033C38.3726 13.818 37.8573 13.7015 37.4705 13.5715C36.9484 13.4107 36.4611 13.2482 35.9739 13.0857C35.4866 12.9231 34.9213 12.7177 34.3525 12.5184C33.851 12.4872 33.3627 12.4671 32.8942 12.4585C32.5296 12.4658 32.1043 12.4441 31.6683 12.3959C31.2323 12.3476 30.8038 12.275 30.4335 12.1864C30.6507 12.099 30.8962 12.0219 31.1549 11.9207C30.7999 11.787 30.5424 11.6507 30.3983 11.52C30.2542 11.3894 30.2263 11.2671 30.3166 11.1607C30.3693 11.0642 29.9833 10.9023 29.85 10.7743C29.6783 10.664 29.6461 10.5611 29.7575 10.479C29.8688 10.3969 30.1187 10.3395 30.4743 10.3143C30.9153 10.2679 31.2742 10.1979 31.5363 10.1073C31.623 10.0838 31.6671 10.0516 31.6646 10.0136C31.6622 9.97568 31.6132 9.9332 31.5222 9.89006C31.4311 9.84692 31.3009 9.80451 31.1436 9.76671C30.9862 9.72891 30.8066 9.69692 30.6212 9.67367C30.0533 9.60776 29.4893 9.56503 28.9616 9.54796C28.0525 9.51653 27.1822 9.4968 26.3508 9.48874C25.4312 9.47662 24.4082 9.4018 23.3855 9.27188C22.47 9.14895 21.6492 9.03873 21.2015 8.80382C20.7539 8.56891 20.0381 8.5764 19.4877 8.40538C19.7969 8.25123 20.3464 8.14412 21.0808 8.09487C21.5614 8.07729 21.9625 8.03115 22.2585 7.9594C22.5545 7.88764 22.7388 7.79187 22.7996 7.67823L21.1287 7.20138C19.7943 6.97688 19.0559 7.14967 17.6141 7.05966L19.0997 6.88363C19.1296 6.86623 19.1407 6.8458 19.1327 6.82332C18.9885 6.46729 18.759 6.39116 17.2403 6.19372L16.3879 6.07927L15.0389 5.94345C14.8228 5.87048 14.6734 5.7944 14.6055 5.72279C14.5376 5.65119 14.5536 5.58657 14.652 5.53542C14.8496 5.44939 14.9097 5.33946 14.8267 5.21575C14.6959 5.13379 14.6851 5.05825 14.7962 5.00221C14.9073 4.94617 15.1333 4.91318 15.435 4.90896C15.6758 4.90245 15.6937 4.80774 15.8246 4.7541C15.9548 4.68019 16.1775 4.62347 16.4777 4.5878C16.7779 4.55214 17.1484 4.53836 17.5642 4.54742C18.7899 4.55482 19.9414 4.52708 20.9981 4.46467L20.8087 4.43924C21.9102 4.49402 22.94 4.50066 23.8479 4.45885C24.7577 4.40621 25.9254 4.43998 26.8918 4.40788C27.6785 4.41524 28.2775 4.34239 28.5616 4.20479C28.8367 4.0734 29.8366 4.10406 30.6022 4.12918C31.0558 4.14543 31.4942 4.15231 31.9127 4.14975C32.4744 4.12002 33.1767 4.14805 33.9025 4.22918C34.1203 4.25411 34.3348 4.26731 34.5254 4.26749C36.3706 4.3016 38.2124 4.34172 40.0326 4.35952C40.4528 4.34927 40.9454 4.37274 41.4528 4.42719C41.666 4.45083 41.8735 4.46062 42.0475 4.45525C44.9236 4.40118 48.1691 4.53914 50.9886 4.46452C51.3304 4.4469 51.7087 4.44324 52.1129 4.45363C53.0212 4.49746 53.81 4.46925 54.3595 4.37329C54.656 4.32226 55.0361 4.29413 55.4755 4.29072C55.915 4.2873 56.4042 4.30866 56.9119 4.35345C57.7568 4.41275 58.5377 4.41918 59.1721 4.37207C60.4092 4.32853 61.7101 4.31064 63.0646 4.31851C63.4797 4.32613 63.8445 4.30921 64.1309 4.26907C64.4173 4.22893 64.6175 4.16664 64.716 4.08704C64.3834 3.95174 64.0197 3.93527 63.6743 3.94716C62.3356 3.91633 61.0003 3.87947 59.6866 3.86494C58.5108 3.82343 57.3826 3.81075 56.3186 3.82706C55.7903 3.84546 55.131 3.8035 54.4847 3.71031C53.6926 3.59229 52.8768 3.53366 52.2022 3.54627C51.7021 3.54941 51.1742 3.53924 50.6261 3.51593C50.2753 3.48781 49.9158 3.43953 49.5843 3.37605C49.4528 3.34847 49.3096 3.32529 49.164 3.30798C49.0184 3.29067 48.8736 3.27962 48.7387 3.27552C48.6038 3.27142 48.4818 3.27436 48.3806 3.28417C48.2794 3.29399 48.2013 3.31045 48.151 3.3325C47.6436 3.51686 46.5089 3.42278 45.5373 3.40239C44.0813 3.09035 42.9977 3.27504 41.6368 3.0988C41.5292 3.08711 41.4232 3.08003 41.3252 3.07801C41.2273 3.07599 41.1395 3.07907 41.0671 3.08704C38.4337 3.19312 35.3644 3.10472 32.5995 3.14135C32.2946 3.1467 31.9406 3.12835 31.578 3.08836C29.2077 2.82368 26.9288 2.74853 25.1867 2.87763C24.9748 2.88925 24.7337 2.88975 24.4743 2.87909C23.2833 2.77389 22.1443 2.73195 21.1525 2.75677C19.598 2.74876 18.1034 2.75525 16.524 2.73094C15.4353 2.69634 14.4802 2.7333 13.7544 2.83814C13.7313 2.88037 13.2478 2.83487 12.8774 2.83046C12.6644 2.72417 12.4798 2.62817 12.2602 2.53394C12.0639 2.41737 11.7698 2.2994 11.3981 2.18804C11.0263 2.07669 10.5855 1.97455 10.1054 1.88853C9.28457 1.77832 9.20248 1.61838 9.77684 1.55954C11.2573 1.36488 13.1188 1.2852 15.2247 1.32637C16.985 1.32966 18.777 1.33719 20.5623 1.35678C21.6036 1.37359 22.7014 1.41093 23.7145 1.41746C24.0563 1.43183 24.4075 1.45299 24.7643 1.48074C25.2021 1.52096 25.6272 1.54288 26.0167 1.54531C27.2674 1.51144 28.6631 1.54095 30.1373 1.63244C30.6773 1.65239 31.1958 1.65911 31.6851 1.65251C32.8427 1.62768 34.0977 1.64595 35.4169 1.70685C36.2368 1.7412 37.0317 1.75915 37.7936 1.76053C38.0627 1.76429 38.2818 1.73544 38.5409 1.75728C40.822 1.98587 42.4372 1.82076 44.4901 1.90866C45.4879 1.93317 46.4412 1.93324 47.3365 1.90887C49.0839 1.91005 50.8799 1.93511 52.7175 1.98395C55.1474 2.0642 57.3992 2.03635 59.7193 2.06948C60.1773 2.07645 60.6196 2.07526 61.0429 2.06593C63.1019 2.00426 65.3383 2.01734 67.6975 2.10484C68.2332 2.11748 68.7143 2.10202 69.1107 2.05945C69.5072 2.01687 69.8104 1.94809 70.0015 1.85741C70.0823 1.79518 70.0299 1.71434 69.8545 1.6305C69.5633 1.52342 69.2344 1.41851 68.8734 1.31749L55.7409 0.978517C55.1893 0.960815 54.6514 0.951287 54.1299 0.949969C52.5962 0.947022 51.0152 0.920652 49.395 0.870988C47.7939 0.824339 46.2644 0.832621 44.7132 0.818576C44.2563 0.813871 43.7873 0.80277 43.3082 0.785306C40.0695 0.647078 36.9114 0.562649 33.8561 0.532627C32.5707 0.528369 31.1821 0.46493 29.8718 0.444367C28.5614 0.423805 26.7695 0.416277 25.215 0.408263L20.4024 0.409494C19.4558 0.405403 18.5341 0.41761 17.6158 0.423788C16.5013 -0.0171879 16.1173 -0.120549 14.6302 -0.313747C14.1215 -0.385012 13.604 -0.427542 13.1385 -0.436355C11.6622 -0.401493 9.80997 -0.546608 8.41008 -0.527397C7.56537 -0.536871 6.84859 -0.487885 6.33313 -0.385446C5.88567 -0.305052 5.374 -0.241436 4.80601 -0.195564C3.25009 -0.572807 3.11297 -0.817818 4.28338 -0.91316C4.60048 -0.935326 5.03727 -0.92847 5.26625 -0.975416C5.39764 -1.004 5.57713 -1.02036 5.79042 -1.02318C6.00371 -1.02601 6.24489 -1.01524 6.49506 -0.991702C7.2846 -0.929967 8.02463 -0.915448 8.64089 -0.949604C9.22086 -0.994807 9.93178 -0.993004 10.7051 -0.944358C11.2734 -0.868057 11.7728 -0.975796 12.2643 -1.00692C12.7557 -1.03805 13.159 -1.09397 13.9266 -1.01033C14.0672 -0.993674 14.2067 -0.983675 14.3345 -0.981101C14.4623 -0.978528 14.5751 -0.983445 14.664 -0.995477C15.4884 -1.04935 16.4722 -1.04369 17.5354 -0.978962C19.1662 -0.915271 20.6962 -0.912884 22.0725 -0.971879C22.8963 -1.0235 23.5987 -1.11504 24.1523 -1.24293C24.3031 -1.28571 24.5272 -1.31136 24.8029 -1.31742C26.1876 -1.29074 27.6912 -1.19031 29.2166 -1.02262C29.7913 -0.955422 30.3652 -0.902273 30.9261 -0.864298C32.0789 -0.779942 33.1939 -0.732672 34.2381 -0.723889C35.7553 -0.722495 37.335 -0.690038 38.9631 -0.626811C39.9679 -0.591607 40.9361 -0.578613 41.8562 -0.587973C42.8019 -0.592385 43.8116 -0.56553 44.8624 -0.508033C45.9074 -0.46118 46.8284 -0.488177 47.5142 -0.585753C47.74 -0.638335 47.922 -0.700773 48.0565 -0.771904C46.5264 -1.00337 44.944 -1.121 43.6277 -1.10111C43.1278 -1.11645 42.7127 -1.10097 42.1859 -1.19112L42.1694 -1.16097C42.0646 -1.1414 41.9064 -1.13678 41.7251 -1.148C41.5437 -1.15921 41.3519 -1.18547 41.1861 -1.22178C41.2487 -1.33638 41.3081 -1.44495 41.3509 -1.52336C42.3538 -1.50953 43.3275 -1.51065 44.2672 -1.52673C45.0592 -1.54986 46.1345 -1.34722 46.82 -1.4235C48.1573 -1.32811 49.0087 -1.45982 50.2078 -1.42181C51.407 -1.38381 52.7278 -1.25826 53.927 -1.22026C54.9734 -1.1994 55.9894 -1.19487 56.9694 -1.20668C57.3076 -1.22326 57.6976 -1.21937 58.1153 -1.19525C58.7025 -1.14988 59.2487 -1.14228 59.6912 -1.17332C60.1337 -1.20436 60.4546 -1.2728 60.6172 -1.37078C60.4641 -1.46256 60.2577 -1.58091 60.0198 -1.7035C60.4575 -1.80423 61.1224 -1.84665 61.9157 -1.82443L63.0367 -1.8293C63.3338 -1.82664 63.5608 -1.85387 63.671 -1.90536C63.7811 -1.95685 63.7659 -2.02865 63.6285 -2.10592C61.5029 -2.49491 61.4247 -2.53779 59.8646 -2.28759L57.7932 -2.40386L57.8281 -2.40565ZM85.845 -1.3371L85.6872 -1.35829L85.845 -1.3371ZM343.978 40.0492L343.941 40.1155L343.981 40.0432L344.328 40.0898L344.351 40.0476L343.978 40.0492ZM293.557 10.969C293.067 10.8966 292.571 10.8301 292.074 10.7698C291.943 10.7604 291.821 10.7583 291.718 10.7636C291.615 10.7689 291.534 10.7815 291.481 10.8002C291.441 10.8726 291.719 10.9228 291.971 10.9567C292.29 11.0024 292.615 11.0314 292.914 11.0408C293.213 11.0501 293.474 11.0396 293.67 11.0101L293.956 10.9837L293.557 10.969ZM40.7374 28.6096C41.0605 28.6217 41.367 28.6237 41.6492 28.6154C42.9011 28.5569 44.0997 28.4719 45.3832 28.4176C47.0027 28.2799 48.8636 28.2238 50.8961 28.2514C51.6901 28.2649 52.361 28.2203 52.8303 28.1227C53.1113 28.0703 53.4739 28.0397 53.8961 28.0327L59.2695 27.8737C59.6016 27.8407 59.8888 27.7944 60.1242 27.736C59.6506 27.6724 59.335 27.63 59.1455 27.6046C58.7525 27.5974 58.4147 27.6168 58.166 27.6608C57.8988 27.7353 57.4471 27.7648 56.9008 27.7434C56.3492 27.7257 55.8113 27.7162 55.2899 27.7148C54.3051 27.7186 53.3136 27.7344 52.3256 27.7441C51.9411 27.9515 50.8065 27.8574 49.8349 27.837L49.0843 27.8463C46.6308 27.9538 44.2871 28.1017 42.0646 28.2892C41.6351 28.321 41.2651 28.3716 40.9659 28.4395C40.8532 28.4925 40.8171 28.5586 40.8604 28.6325L40.7026 28.6114L40.7374 28.6096ZM150.301 48.4354C150.897 48.4495 151.516 48.4785 152.152 48.522C152.641 48.5664 153.119 48.5933 153.565 48.6017C156.068 48.6482 158.675 48.7555 161.353 48.9223C161.704 48.9476 162.04 48.96 162.35 48.959L164.542 48.9167C165.233 48.8929 165.246 48.8688 164.743 48.5488C164.326 48.4867 163.904 48.43 163.48 48.3792C163.228 48.3453 162.817 48.2902 162.721 48.342C162.136 48.4835 161.067 48.3919 160.169 48.3619C157.568 48.2846 154.885 48.1704 152.259 48.0768C151.704 48.0539 151.166 48.0423 150.652 48.0422C150.332 48.0374 150.041 48.0464 149.79 48.0689C149.717 48.0712 149.655 48.0779 149.61 48.0886C149.564 48.0992 149.536 48.1136 149.527 48.1307C149.517 48.1478 149.527 48.1673 149.556 48.1878C149.584 48.2084 149.63 48.2295 149.691 48.2499C149.906 48.3211 150.154 48.3893 150.428 48.4523L150.301 48.4354ZM169.355 1.99014L171.917 1.9522C172.224 1.94813 172.485 1.90543 172.814 1.92369C174.568 1.98157 176.193 1.96545 177.618 1.87601C178.103 1.83951 178.671 1.83221 179.29 1.85452C181.186 1.92061 182.974 1.92333 184.606 1.8626C185.661 1.85041 186.648 1.80947 187.553 1.74039C187.623 1.72436 187.666 1.70258 187.681 1.67656C187.695 1.65054 187.68 1.62088 187.636 1.5896C187.624 1.56984 187.593 1.54859 187.545 1.5273C187.496 1.50601 187.432 1.4852 187.355 1.46629C187.278 1.44739 187.192 1.43085 187.101 1.4178C187.01 1.40475 186.918 1.3955 186.829 1.3907C185.686 1.29719 184.601 1.26462 183.662 1.29562C182.792 1.33271 181.855 1.34356 180.866 1.32801C179.919 1.32392 179.277 1.44486 178.107 1.35258C177.613 1.32219 177.176 1.33219 176.872 1.38092C176.259 1.46167 175.404 1.46617 174.459 1.39359C173.893 1.35686 173.353 1.34111 172.858 1.34694C171.657 1.37349 170.51 1.42661 169.397 1.47794C169.047 1.48982 168.671 1.49146 168.277 1.48282L162.706 1.38231C161.367 1.35148 160.032 1.31461 158.718 1.30008C157.644 1.26853 156.644 1.27841 155.754 1.32938C154.805 1.38295 153.77 1.40469 152.669 1.39421C150.959 1.42352 149.258 1.43473 147.396 1.43079C146.209 1.43321 144.993 1.42537 143.753 1.40123C143.125 1.37015 142.592 1.39546 142.257 1.47228C142.053 1.53553 141.573 1.484 141.174 1.46933C139.048 1.32786 137.054 1.29434 135.331 1.3711C135.111 1.3836 134.87 1.38813 134.612 1.3846C132.953 1.38197 131.234 1.36482 129.642 1.36463C129.222 1.3706 128.828 1.38696 128.463 1.41352C128.502 1.45685 128.613 1.50381 128.774 1.54467C128.935 1.58553 129.132 1.61715 129.326 1.63296C130.832 1.75401 132.286 1.81796 133.627 1.82212C135.86 1.8067 138.199 1.84137 140.619 1.92576C142.498 2.01084 144.21 1.99293 145.63 1.87336C146.739 1.78414 148.183 1.8177 149.712 1.9683C150.366 2.04022 151.002 2.06898 151.531 2.05065C152.04 2.0266 152.624 2.03243 153.25 2.0678C154.568 2.13505 155.836 2.16625 157.028 2.16078C158.194 2.13602 159.281 2.06839 160.479 2.04787C161.676 2.02735 163.499 2.03911 164.975 2.00425C166.452 1.96939 167.911 1.96469 169.355 1.99014ZM63.1824 -1.53782C63.3176 -1.35133 63.7964 -1.23525 64.3114 -1.18552C66.087 -0.964717 67.8424 -0.870755 69.2829 -0.919408C70.061 -0.987273 71.0984 -0.961151 72.191 -0.846168C73.4634 -0.726645 74.6526 -0.706822 75.5492 -0.790196C75.7688 -0.804764 75.937 -0.835562 76.0388 -0.879845C76.0585 -0.916033 76.0948 -0.98238 76.1014 -0.994441C76.0072 -1.02504 75.8917 -1.05338 75.7637 -1.07729C75.6358 -1.10121 75.4989 -1.12005 75.3635 -1.13236L69.4822 -1.34585L68.4573 -1.39282C66.5853 -1.5159 64.8015 -1.56493 63.1824 -1.53782ZM74.751 1.41393C75.6689 1.71846 75.6721 1.71242 76.1424 1.78203C78.4111 2.07119 80.6782 2.22729 82.674 2.23174C83.1176 2.23086 83.4941 2.20146 83.7715 2.14602C83.9142 2.13851 84.0051 2.11464 84.0242 2.07961C84.0434 2.04458 83.9893 2.00125 83.8737 1.95904L83.1438 1.74451C81.8182 1.65163 80.5116 1.57783 79.232 1.52355C77.7421 1.45946 76.4217 1.45699 74.8772 1.43088L74.751 1.41393ZM150.191 47.0869C151.046 47.506 151.05 47.5 152.482 47.6081C153.48 47.6847 154.447 47.7297 155.357 47.7417C156.468 47.7549 157.607 47.7784 158.715 47.7976C158.986 47.811 159.215 47.7999 159.358 47.7665C159.502 47.7332 159.549 47.6799 159.492 47.617C159.346 47.5488 159.119 47.4828 158.846 47.4298C158.574 47.3768 158.272 47.3398 157.991 47.3249L157.386 47.3149C156.652 47.2941 155.89 47.2629 155.181 47.2583C154.72 47.2757 154.187 47.2623 153.623 47.2191C153.059 47.1759 152.479 47.1041 151.928 47.0093L150.191 47.0869ZM79.3182 -0.989819C79.5466 -0.917235 79.8049 -0.847715 80.0862 -0.783111C81.1756 -0.604045 82.3285 -0.502342 83.3191 -0.497942C83.7874 -0.48685 84.2157 -0.526455 84.6926 -0.468902C85.5479 -0.391995 86.3767 -0.35103 87.1344 -0.34822C87.1344 -0.34822 87.3468 -0.365013 87.4166 -0.368598L87.5616 -0.633983C87.203 -0.695464 86.8289 -0.745691 86.4567 -0.782348C85.2075 -0.852957 83.9801 -0.901227 82.756 -0.955532C81.5318 -1.00984 81.1049 -1.03478 80.3044 -1.05811C79.9473 -1.04529 79.617 -1.02241 79.3182 -0.989819ZM52.2679 32.0029L53.9026 32.5461C54.4315 32.5933 54.9257 32.6019 55.3099 32.5705C55.6941 32.5391 55.9472 32.4695 56.0308 32.3722C56.1654 32.3267 56.1789 32.2593 56.0684 32.1841C55.9579 32.1089 55.7319 32.0318 55.438 31.9689C55.1551 31.8944 54.8322 31.8275 54.4891 31.7726C54.1461 31.7176 53.7904 31.6757 53.4439 31.6494L52.2679 32.0029ZM65.8781 29.2984C64.8089 29.2063 63.7863 29.1686 62.8884 29.1883C62.3227 29.2422 61.5561 29.225 60.746 29.1402C59.2726 28.9712 57.8522 28.9244 56.7847 29.0097C56.7847 29.0097 56.745 29.0821 56.5641 29.1031C56.3832 29.1241 57.1008 29.1752 57.2587 29.1964C58.4164 29.2482 59.5807 29.288 60.5871 29.3066C61.212 29.3058 61.8729 29.3229 62.5586 29.3577C63.5019 29.4113 64.3966 29.4286 65.2076 29.4091C65.2076 29.4091 65.5214 29.3929 65.8748 29.3044L65.8781 29.2984ZM180.059 1.00603C179.548 0.903734 178.994 0.820591 178.439 0.762846C177.884 0.705103 177.341 0.674256 176.852 0.672614C176.478 0.667277 176.175 0.694285 175.991 0.749374C175.808 0.804461 175.754 0.884483 175.839 0.976784C176.218 1.02765 176.723 1.09547 177.007 1.13362C177.992 1.12989 178.832 1.08084 180.059 1.00603ZM275.653 9.62676C275.243 9.54441 274.792 9.48144 274.35 9.44506C273.909 9.40867 273.495 9.40034 273.156 9.42099C272.982 9.42996 273.1 9.52353 273.07 9.57781C273.051 9.59013 273.051 9.60543 273.071 9.62213C273.091 9.63884 273.13 9.65633 273.183 9.67276C273.236 9.6892 273.303 9.70398 273.375 9.71555C273.447 9.72713 273.522 9.73507 273.593 9.73856C274.037 9.77403 274.457 9.78459 274.814 9.76929C275.171 9.75399 275.455 9.71332 275.64 9.65089L275.653 9.62676ZM282.058 10.804C281.995 10.7554 281.86 10.7048 281.678 10.6613C281.496 10.6179 281.28 10.5846 281.069 10.5676C280.696 10.5653 280.357 10.5788 280.064 10.6075C279.747 10.6297 279.975 10.7704 280.404 10.8539C280.586 10.8874 280.78 10.9135 280.971 10.9302C281.162 10.9469 281.345 10.9536 281.505 10.95C281.664 10.9463 281.797 10.9323 281.892 10.909C281.987 10.8858 282.042 10.854 282.051 10.8161L282.058 10.804ZM95.9455 -0.472949C94.9899 -0.646576 94.2544 -0.602896 93.4454 -0.672679C92.6363 -0.742465 92.437 -0.749805 92.5454 -0.638138C92.6538 -0.526472 93.2084 -0.549118 93.5556 -0.50249C94.0248 -0.440618 94.4969 -0.405091 94.9189 -0.399872C95.341 -0.394654 95.6964 -0.419956 95.9455 -0.472949ZM295.071 28.9051C294.564 28.8662 294.069 28.8386 293.591 28.823C293.528 28.8391 293.488 28.8602 293.475 28.8851C293.461 28.9099 293.474 28.938 293.511 28.9677C293.511 28.9677 293.836 29.0565 294.025 29.082C294.723 29.1692 294.757 29.0443 295.071 28.9051ZM366.608 45.0819C366.951 45.1991 367.11 45.2788 367.385 45.335C367.511 45.3546 367.641 45.3688 367.766 45.3765C367.891 45.3843 368.007 45.3855 368.106 45.38C368.226 45.3463 368.254 45.2946 368.185 45.2353C368.185 45.2353 367.836 45.1301 367.703 45.1253C367.324 45.1004 366.956 45.0859 366.608 45.0819ZM79.68 -1.46565C78.9539 -1.56315 78.2593 -1.65642 77.7566 -1.54264C78.9096 -1.4202 78.9096 -1.42019 79.68 -1.46565ZM91.4405 -0.352718C90.7073 -0.561227 90.2771 -0.580149 89.9251 -0.556192C89.8503 -0.550157 89.8008 -0.536708 89.7841 -0.517887C89.7674 -0.499064 89.7844 -0.475891 89.8325 -0.451871C89.8806 -0.427852 89.9573 -0.404294 90.0508 -0.384762C90.1444 -0.365228 90.2498 -0.350781 90.3511 -0.34361C90.7334 -0.337607 91.0981 -0.340654 91.4405 -0.352718ZM129.177 -0.264548C129.193 -0.294705 129.213 -0.330893 129.024 -0.356327C128.974 -0.369239 128.916 -0.380342 128.855 -0.388527C128.794 -0.396712 128.732 -0.401684 128.676 -0.402949C128.676 -0.402949 128.657 -0.36676 128.643 -0.342633L129.177 -0.264548ZM155.382 49.8038L154.96 49.8314L155.15 49.8568L155.649 49.8721L155.382 49.8038ZM303.868 10.3334C303.71 10.3122 303.552 10.291 303.529 10.3332C303.496 10.3398 303.475 10.3492 303.469 10.3608C303.462 10.3723 303.471 10.3856 303.493 10.3996C303.493 10.3996 303.714 10.4293 303.808 10.442L303.868 10.3334ZM279.284 10.6711C279.18 10.6687 279.087 10.6715 279.009 10.6794L278.989 10.7156L279.304 10.758L279.284 10.6711ZM65.0443 19.2938C64.9223 19.2718 64.7931 19.2545 64.6655 19.2429L64.5076 19.2217C64.5076 19.2217 64.6772 19.2833 64.7719 19.2961C64.8666 19.3088 64.943 19.2931 65.0443 19.2938Z" fill="#DF6951"/>
</g>
</svg>
